<svg id="Layer_1" data-name="Layer 1" xmlns="http://www.w3.org/2000/svg" xmlns:xlink="http://www.w3.org/1999/xlink" viewBox="0 0 223.46 300.55"><defs><style>.cls-1{fill:none;}.cls-2{fill:#231f20;}.cls-3{clip-path:url(#clip-path);}</style><clipPath id="clip-path" transform="translate(-60.92 -8.66)"><path id="SVGID" class="cls-1" d="M79.6,168.65l93.07,25.42,91.71-25.42c71.55-221.94-29.21-29.1-77.31-105.7C103.34,115.48,8.17-20.73,79.6,168.65Z"/></clipPath></defs><g id="Layer_2" data-name="Layer 2"><path class="cls-2" d="M141.44,117.25l.56-.41a41.42,41.42,0,0,1,14.09-6.11,60.47,60.47,0,0,0-5.44-3.14,63.67,63.67,0,0,1-12.14-7.91c-3-2.6-4.44-5.5-4.35-8.76a24.57,24.57,0,0,1,2.19-8.72c.39-1,.83-1.89,1.31-3a9.13,9.13,0,0,0-1.34.44,25.4,25.4,0,0,0-3.63,2.16A14.7,14.7,0,0,0,127,94.45c.06,1.21,0,2.36-1.82,3a9.14,9.14,0,0,1-3.73.33,30.8,30.8,0,0,1-7.55-1.6,38.12,38.12,0,0,1-12.81-6.72c-3.3-2.8-3.91-5.71-1.39-8.94a80.9,80.9,0,0,1,7.2-7.84c4.38-4.27,8.93-8.47,12.76-13a32.41,32.41,0,0,0,5.79-8.93c.28-.72.47-1.45.7-2.17l-.24-.07c-1.53,1.45-3,2.9-4.57,4.34-2.47,2.33-4.89,4.67-7.45,7a13.29,13.29,0,0,1-3,1.84,1.83,1.83,0,0,1-2.36-.45,4,4,0,0,1-.85-1.83,37.81,37.81,0,0,1-.09-4.26,32.11,32.11,0,0,1,2-10.2,33.51,33.51,0,0,1,5.16-9.58,25.15,25.15,0,0,1,5.09-4.92,1.61,1.61,0,0,0-.23,0l-.51.19a26.34,26.34,0,0,0-13,9.86A38.3,38.3,0,0,0,100.76,53c-1.1,4.23-2.06,8.47-3.19,12.69a21.62,21.62,0,0,1-3.71,7.85,7.35,7.35,0,0,1-1.26,1.3,1.66,1.66,0,0,1-2.46-.14,6.25,6.25,0,0,1-1-1.58,23.24,23.24,0,0,1-1.79-9.21,50.49,50.49,0,0,1,.67-8.3A53.22,53.22,0,0,1,93,40.94a82.4,82.4,0,0,1,13-19A76.75,76.75,0,0,1,117,11.7c1.38-1,2.81-2,4.22-3h-.33l-2.28.75a49.33,49.33,0,0,0-16.35,8.78,64.39,64.39,0,0,0-14,15.93,90.3,90.3,0,0,0-7.62,14.72,11.53,11.53,0,0,1-1.3,2.27.68.68,0,0,1-1.19,0,3.89,3.89,0,0,1-.5-.88,26.73,26.73,0,0,1-1.38-11.89,41,41,0,0,1,3.23-12.27c.27-.64.56-1.28.86-2l-.27.09a25.17,25.17,0,0,0-8.54,10.36,26,26,0,0,0-1.56,14,46.49,46.49,0,0,0,4.09,13.29c1.28,2.73,2.91,5.39,4.22,8.11a46.79,46.79,0,0,1,3.95,11.28,10.89,10.89,0,0,1,0,3.69c-.13.85-1.08,1.1-2.12.6a17.76,17.76,0,0,1-3.24-2,60.92,60.92,0,0,1-14-15.64c-.64-1-1.25-2-1.87-3a19.11,19.11,0,0,0,.56,6.48,27,27,0,0,0,7.7,12.94A58.92,58.92,0,0,0,85.13,94.76a166.05,166.05,0,0,0,19.12,7.56c6.62,2.23,13.31,4.36,19.92,6.6a73.17,73.17,0,0,1,14.36,6.24A22.84,22.84,0,0,1,141.44,117.25Z" transform="translate(-60.92 -8.66)"/><path class="cls-2" d="M203.86,117.25l-.56-.41a41.47,41.47,0,0,0-14.1-6.11,62.09,62.09,0,0,1,5.45-3.14,63.67,63.67,0,0,0,12.14-7.91c3-2.6,4.44-5.5,4.35-8.76A24.57,24.57,0,0,0,209,82.2c-.4-1-.84-1.89-1.31-3a8.56,8.56,0,0,1,1.33.44,25,25,0,0,1,3.64,2.16,14.72,14.72,0,0,1,5.71,12.62c-.06,1.21,0,2.36,1.82,3a9.14,9.14,0,0,0,3.73.33,31,31,0,0,0,7.55-1.6,38.22,38.22,0,0,0,12.81-6.72c3.29-2.8,3.91-5.71,1.39-8.94a79.76,79.76,0,0,0-7.21-7.84c-4.37-4.27-8.92-8.47-12.75-13a32.19,32.19,0,0,1-5.79-8.93c-.28-.72-.47-1.45-.7-2.17l.24-.07q2.28,2.18,4.57,4.34c2.47,2.33,4.89,4.67,7.44,7a13.36,13.36,0,0,0,3.05,1.84,1.84,1.84,0,0,0,2.36-.45,4,4,0,0,0,.85-1.83,37.81,37.81,0,0,0,.09-4.26,32.12,32.12,0,0,0-2-10.2,33,33,0,0,0-5.16-9.58,24.84,24.84,0,0,0-5.08-4.92,1.61,1.61,0,0,1,.23,0l.51.19a26.34,26.34,0,0,1,13,9.86A38.51,38.51,0,0,1,244.54,53c1.1,4.23,2.06,8.47,3.19,12.69a21.62,21.62,0,0,0,3.71,7.85,7.35,7.35,0,0,0,1.26,1.3,1.66,1.66,0,0,0,2.46-.14,6.25,6.25,0,0,0,1-1.58A23.24,23.24,0,0,0,258,63.87a51.61,51.61,0,0,0-.67-8.3,53.56,53.56,0,0,0-4.94-14.63,82.4,82.4,0,0,0-13-19,77.28,77.28,0,0,0-11-10.19c-1.38-1-2.82-2-4.23-3h.34l2.28.75a49.33,49.33,0,0,1,16.35,8.78,64.39,64.39,0,0,1,14,15.93,90.3,90.3,0,0,1,7.62,14.72,11.53,11.53,0,0,0,1.3,2.27.68.68,0,0,0,1.19,0,3.5,3.5,0,0,0,.49-.88A26.6,26.6,0,0,0,269,38.32a41.58,41.58,0,0,0-3.23-12.27c-.27-.64-.56-1.28-.86-2l.27.09a25.33,25.33,0,0,1,8.54,10.36,25.88,25.88,0,0,1,1.55,14,45.87,45.87,0,0,1-4.09,13.29c-1.28,2.73-2.9,5.39-4.21,8.11a46.79,46.79,0,0,0-3.95,11.28,10.89,10.89,0,0,0,0,3.69c.13.85,1.07,1.1,2.12.6a18.11,18.11,0,0,0,3.24-2,61.1,61.1,0,0,0,14-15.64c.64-1,1.25-2,1.87-3a19.11,19.11,0,0,1-.56,6.48A27,27,0,0,1,276,84.22a59.07,59.07,0,0,1-15.87,10.54A165.5,165.5,0,0,1,241,102.32c-6.61,2.23-13.3,4.36-19.91,6.6a73.17,73.17,0,0,0-14.36,6.24A22.15,22.15,0,0,0,203.86,117.25Z" transform="translate(-60.92 -8.66)"/><g class="cls-3"><path class="cls-2" d="M172.65,278.3l-29.37-39.8c-10.51-38.2-36.76-72.71-33.08-88.29,7.77-28.33,20.69-42.15,62.45-47.51" transform="translate(-60.92 -8.66)"/><path class="cls-2" d="M126.71,158.38v0a5.58,5.58,0,0,1-1-1.07c-.38-.55-.74-1.1-1.08-1.67a5.74,5.74,0,0,1-1.81-.07c-3.2-.68-5.36-3-6.84-5.79a4.94,4.94,0,0,1,1.84-6.65c0-.14-.1-.28-.14-.42a4.21,4.21,0,0,1,1.62-5.14,6,6,0,0,1,1.23-1.13c-.17-.07-.34-.15-.53-.21A235,235,0,0,0,83.5,127.5c-4.19-.64-8.94-1.77-12.64,1-4.34,3.18-3.42,8.57-.43,12.35,13.19,16.65,36,22.94,56.2,17.84A2.76,2.76,0,0,1,126.71,158.38Z" transform="translate(-60.92 -8.66)"/><path class="cls-2" d="M172.65,278.3,202,238.5c10.51-38.2,36.76-72.71,33.08-88.29-7.77-28.33-20.69-42.15-62.45-47.51" transform="translate(-60.92 -8.66)"/><path class="cls-2" d="M214.07,158.38v0a5.58,5.58,0,0,0,1-1.07c.38-.55.74-1.1,1.08-1.67a5.75,5.75,0,0,0,1.81-.07c3.2-.68,5.36-3,6.84-5.79a4.94,4.94,0,0,0-1.84-6.65l.14-.42a4.21,4.21,0,0,0-1.62-5.14,6,6,0,0,0-1.23-1.13c.17-.07.34-.15.53-.21a235,235,0,0,1,36.53-8.69c4.19-.64,8.94-1.77,12.64,1,4.34,3.18,3.42,8.57.43,12.35-13.19,16.65-36.05,22.94-56.2,17.84C214.12,158.56,214.1,158.47,214.07,158.38Z" transform="translate(-60.92 -8.66)"/></g><polygon class="cls-2" points="204.79 278.75 111.73 300.55 111.73 187.15 204.79 165.36 204.79 278.75"/><polygon class="cls-2" points="18.67 278.75 111.73 300.55 111.73 187.15 18.67 165.36 18.67 278.75"/></g></svg>