<svg id="Layer_1" data-name="Layer 1" xmlns="http://www.w3.org/2000/svg" viewBox="0 0 277.3 247.69"><defs><style>.cls-1,.cls-2,.cls-3{fill:#231f20;}.cls-2,.cls-3,.cls-4{stroke:#231f20;stroke-miterlimit:10;}.cls-2,.cls-4{stroke-width:3.5px;}.cls-3{stroke-width:0.75px;}.cls-4{fill:none;}</style></defs><path class="cls-1" d="M99,213.13H83.57V162.6H15.74v50.53H.38V102.37H15.74v48.57H83.57V102.37H99Z" transform="translate(-0.01 -0.08)"/><path class="cls-2" d="M136,211q-12.21,0-19.55-8T109.07,182q0-13.84,7.49-22.1t20.38-8.24q11.88,0,19.15,8t7.27,20.94q0,14.06-7.45,22.22T136,211Zm.48-53.25a18.52,18.52,0,0,0-14.69,6.53q-5.64,6.53-5.65,17.13t5.51,17.08A18,18,0,0,0,136,204.94q9.45,0,14.9-6.17t5.44-17.26q0-11.37-5.28-17.57t-14.63-6.21Z" transform="translate(-0.01 -0.08)"/><path class="cls-2" d="M227.4,210h-6.69V171.5q0-4.56.56-11.17h-.16a35.16,35.16,0,0,1-1.72,5.57L199.77,210h-3.28l-19.58-43.8a33.66,33.66,0,0,1-1.72-5.89H175c.21,2.3.31,6,.32,11.25V210h-6.49V152.61h8.89l17.62,40a51.43,51.43,0,0,1,2.6,6.92h.24q1.72-4.72,2.76-7.05l18-39.87h8.41Z" transform="translate(-0.01 -0.08)"/><path class="cls-2" d="M267.18,210H236.75V152.61H265.9v6.08H243.48v19.1h20.74v6.05H243.48v20.1h23.7Z" transform="translate(-0.01 -0.08)"/><path class="cls-3" d="M24.86,246.91H.38V217.78H23.82v3.09h-18v9.69H22.47v3.07H5.79v10.19H24.86Z" transform="translate(-0.01 -0.08)"/><path class="cls-3" d="M29.13,246.91V217.78H41.88q24.4,0,24.41,14.2,0,6.75-6.78,10.84t-18.15,4.09Zm5.41-26v23h6.89q9.07,0,14.14-3.06a9.66,9.66,0,0,0,5-8.7q0-11.19-18.87-11.19Z" transform="translate(-0.01 -0.08)"/><path class="cls-3" d="M80.68,217.78v2.93H76.17V244h4.51v2.92H66.25V244h4.51V220.71H66.25v-2.93Z" transform="translate(-0.01 -0.08)"/><path class="cls-3" d="M111,220.87H97.67v26H92.26v-26H79v-3.09h32Z" transform="translate(-0.01 -0.08)"/><path class="cls-3" d="M132.64,247.4q-9.82,0-15.73-4.08T111,232.69a13,13,0,0,1,6-11.21q6-4.18,16.4-4.18,9.56,0,15.41,4.06T154.62,232a13,13,0,0,1-6,11.27Q142.7,247.41,132.64,247.4Zm.39-27q-7.27,0-11.82,3.32a10.63,10.63,0,0,0-2.63,14.8,10.52,10.52,0,0,0,2.52,2.55q4.43,3.28,11.54,3.28,7.61,0,12-3.13a10.11,10.11,0,0,0,4.38-8.75,10.44,10.44,0,0,0-4.25-8.92q-4.28-3.17-11.74-3.17Z" transform="translate(-0.01 -0.08)"/><path class="cls-3" d="M192.24,246.91H185.8l-7.73-8.16a18.85,18.85,0,0,0-2.06-1.94,10.29,10.29,0,0,0-2-1.31,9.09,9.09,0,0,0-2.26-.75,14.62,14.62,0,0,0-2.72-.23h-4.44v12.39h-5.41V217.78H173a30.81,30.81,0,0,1,5.59.48,15.84,15.84,0,0,1,4.44,1.45,8.15,8.15,0,0,1,3,2.43,5.9,5.9,0,0,1,.34,6.2,7.55,7.55,0,0,1-2.06,2.26,13.41,13.41,0,0,1-3.22,1.7,22.35,22.35,0,0,1-4.24,1.08v.08a11.73,11.73,0,0,1,2,.75,10.47,10.47,0,0,1,1.63,1A17.11,17.11,0,0,1,182,236.5c.5.48,1.07,1,1.69,1.68Zm-27.69-26v10.52h7.34a16.87,16.87,0,0,0,3.75-.38,10.73,10.73,0,0,0,3-1.11,5.67,5.67,0,0,0,2-1.77,4,4,0,0,0-1-5.63,3.21,3.21,0,0,0-.65-.37,14.78,14.78,0,0,0-6.94-1.31Z" transform="translate(-0.01 -0.08)"/><path class="cls-3" d="M203.89,217.78v2.93h-4.51V244h4.51v2.92H189.46V244H194V220.71h-4.51v-2.93Z" transform="translate(-0.01 -0.08)"/><path class="cls-3" d="M242.65,246.91h-6l-4.89-8.16H212.19l-4.61,8.16h-6l17.71-29.13h5.61ZM230,235.68l-7.25-12.41a8.43,8.43,0,0,1-.71-2h-.13a7.2,7.2,0,0,1-.74,2L214,235.68Z" transform="translate(-0.01 -0.08)"/><path class="cls-3" d="M268.79,246.91h-24V217.78h5.41v26h18.55Z" transform="translate(-0.01 -0.08)"/><path d="M171.75,108.59c.14-.14.27-.28.42-.41a27.12,27.12,0,0,1,10.4-6.11,44.91,44.91,0,0,0-4-3.14,48.09,48.09,0,0,1-9-7.91,12.61,12.61,0,0,1-3.21-8.76A32,32,0,0,1,168,73.54c.3-1,.62-1.9,1-3a5.24,5.24,0,0,0-1,.44,17.91,17.91,0,0,0-2.68,2.15,17.32,17.32,0,0,0-4.21,12.62c0,1.21,0,2.36-1.35,3a5.12,5.12,0,0,1-2.76.38,17.8,17.8,0,0,1-5.57-1.6,26.89,26.89,0,0,1-9.43-6.7c-2.43-2.79-2.89-5.7-1-8.93a77.13,77.13,0,0,1,5.32-7.84c3.23-4.27,6.59-8.47,9.42-13A35.25,35.25,0,0,0,160,42.13c.21-.72.35-1.45.52-2.17l-.18-.07q-1.68,2.18-3.37,4.34c-1.82,2.32-3.61,4.67-5.5,6.94A9.26,9.26,0,0,1,149.19,53a1.14,1.14,0,0,1-1.6-.2,1.49,1.49,0,0,1-.14-.24,4.75,4.75,0,0,1-.63-1.83c-.1-1.42-.07-2.84-.06-4.26a42.47,42.47,0,0,1,1.49-10.21,38.8,38.8,0,0,1,3.81-9.57,22.77,22.77,0,0,1,3.76-4.92.49.49,0,0,0-.17,0l-.38.19a21.57,21.57,0,0,0-9.58,9.86,46.64,46.64,0,0,0-3.93,12.45c-.81,4.23-1.52,8.47-2.35,12.69a26,26,0,0,1-2.74,7.85,6.73,6.73,0,0,1-.94,1.3,1,1,0,0,1-1.36.38,1,1,0,0,1-.45-.52,6.91,6.91,0,0,1-.74-1.58,30.59,30.59,0,0,1-1.32-9.21A63.82,63.82,0,0,1,136,32.27a88.4,88.4,0,0,1,9.57-19,69,69,0,0,1,8.15-10.19c1-1,2.08-2,3.12-3h-.25c-.56.25-1.11.5-1.68.74a35,35,0,0,0-12.07,8.79A62.09,62.09,0,0,0,132.5,25.54a103.57,103.57,0,0,0-5.63,14.72,13.15,13.15,0,0,1-1,2.27c-.25.48-.62.45-.88,0a4.52,4.52,0,0,1-.36-.88,35.81,35.81,0,0,1-1-11.89A54,54,0,0,1,126,17.49c.2-.64.41-1.28.64-2a.72.72,0,0,0-.2.09,25,25,0,0,0-6.31,10.36,34.68,34.68,0,0,0-1.15,14,59.29,59.29,0,0,0,3,13.28c1,2.74,2.15,5.4,3.11,8.12A58.45,58.45,0,0,1,128,72.62a15.19,15.19,0,0,1,0,3.69c-.1.85-.79,1.09-1.56.59a12.44,12.44,0,0,1-2.4-2,58.86,58.86,0,0,1-10.34-15.65c-.47-1-.92-2-1.38-3a26.06,26.06,0,0,0,.41,6.48,30.05,30.05,0,0,0,5.69,12.94,45.74,45.74,0,0,0,11.73,10.46,106.33,106.33,0,0,0,14.12,7.56c4.89,2.22,9.82,4.36,14.7,6.6a47.48,47.48,0,0,1,10.6,6.24A16.74,16.74,0,0,1,171.75,108.59Z" transform="translate(-0.01 -0.08)"/><path d="M217.83,108.59c-.14-.14-.27-.28-.42-.41a27.12,27.12,0,0,0-10.4-6.11,44.91,44.91,0,0,1,4-3.14A48.09,48.09,0,0,0,220,91a12.61,12.61,0,0,0,3.21-8.76,32,32,0,0,0-1.61-8.72c-.3-1-.62-1.9-1-3a5.24,5.24,0,0,1,1,.44,17.91,17.91,0,0,1,2.68,2.15,17.32,17.32,0,0,1,4.21,12.62c0,1.21,0,2.36,1.35,3a5.08,5.08,0,0,0,2.75.34,17.54,17.54,0,0,0,5.57-1.6,26.77,26.77,0,0,0,9.46-6.73c2.43-2.79,2.89-5.7,1-8.93A77.13,77.13,0,0,0,243.31,64c-3.23-4.27-6.59-8.47-9.42-13a35.94,35.94,0,0,1-4.24-8.86c-.21-.72-.35-1.45-.52-2.17l.18-.07c1.11,1.49,2.23,3,3.37,4.36,1.82,2.32,3.61,4.67,5.5,6.94A9.26,9.26,0,0,0,240.43,53a1.14,1.14,0,0,0,1.6-.2,1.49,1.49,0,0,0,.14-.24,4.75,4.75,0,0,0,.63-1.83c.1-1.42.07-2.84.06-4.26a42.47,42.47,0,0,0-1.49-10.21,38.8,38.8,0,0,0-3.81-9.57,22.77,22.77,0,0,0-3.76-4.92.49.49,0,0,1,.17,0l.38.19A21.56,21.56,0,0,1,244,31.85,46.18,46.18,0,0,1,247.9,44.3c.81,4.23,1.52,8.47,2.35,12.69A26,26,0,0,0,253,64.84a6.73,6.73,0,0,0,.94,1.3,1,1,0,0,0,1.36.38,1,1,0,0,0,.45-.52,6.91,6.91,0,0,0,.74-1.58,30.59,30.59,0,0,0,1.32-9.21,67.73,67.73,0,0,0-.5-8.3,67.19,67.19,0,0,0-3.64-14.64,88.4,88.4,0,0,0-9.57-19,67.7,67.7,0,0,0-8.15-10.19c-1-1-2.08-2-3.12-3h.25c.56.25,1.11.5,1.68.74A35,35,0,0,1,246.8,9.61a62.09,62.09,0,0,1,10.31,15.93,103.57,103.57,0,0,1,5.63,14.72,13.15,13.15,0,0,0,1,2.27c.25.48.62.45.88,0a4.52,4.52,0,0,0,.36-.88,35.81,35.81,0,0,0,1-11.89,54,54,0,0,0-2.39-12.27c-.2-.64-.41-1.28-.64-2a.72.72,0,0,1,.2.09,25,25,0,0,1,6.31,10.36,34.68,34.68,0,0,1,1.15,14,59.29,59.29,0,0,1-3,13.28c-.95,2.74-2.15,5.4-3.11,8.12a58.45,58.45,0,0,0-2.92,11.28,14.24,14.24,0,0,0,0,3.69c.1.85.79,1.09,1.56.59a12.44,12.44,0,0,0,2.4-2,58.86,58.86,0,0,0,10.34-15.65c.47-1,.92-2,1.38-3a26.06,26.06,0,0,1-.41,6.48,30.05,30.05,0,0,1-5.69,12.94A45.7,45.7,0,0,1,259.4,86.13a106.33,106.33,0,0,1-14.12,7.56c-4.89,2.22-9.82,4.36-14.7,6.6a47.48,47.48,0,0,0-10.6,6.24A16.74,16.74,0,0,0,217.83,108.59Z" transform="translate(-0.01 -0.08)"/><polyline class="cls-4" points="112.31 142.04 194.34 94.14 268.79 143.87"/><line class="cls-4" x1="115.4" y1="183.46" x2="156.91" y2="183.46"/><line class="cls-4" x1="136.33" y1="206.61" x2="136.33" y2="154.7"/><line class="cls-4" x1="111.85" y1="232.58" x2="153.8" y2="232.58"/><line class="cls-4" x1="132.52" y1="219.63" x2="132.52" y2="244.26"/></svg>