<svg id="Layer_1" data-name="Layer 1" xmlns="http://www.w3.org/2000/svg" viewBox="0 0 129.09 169.57"><path d="M182.93,169.8q0-28.22,0-56.42a22.08,22.08,0,0,1,.29-3.73,4.59,4.59,0,0,1,4.11-3.78,20.88,20.88,0,0,1,2.24-.05H291.75c5,0,6.64,1.61,6.64,6.63q0,57.36,0,114.73c0,4.88-1.8,6.62-6.74,6.62h-102c-5,0-6.73-1.74-6.74-6.82Q182.91,198.39,182.93,169.8Zm35.93.23v-44.8c0-6.15-.8-7-6.86-6.94-4.47,0-5.79,1.32-5.79,5.8v80.62c0,3.75,0,7.5,0,11.25s1.59,5.39,5.49,5.4H213c4.48,0,5.85-1.35,5.85-5.77Q218.88,192.82,218.86,170ZM247,170V125.23c0-6.07-.88-7-6.89-6.94-4.46,0-5.76,1.32-5.76,5.83v90.54c0,5.64,1,6.71,6.61,6.7,4.72,0,6-1.3,6-6Zm28.13-.2q0-23.06,0-46.12c0-2.21-.39-4.12-2.66-5.09s-7.63-.4-8.81.89a4.29,4.29,0,0,0-1.17,2.7c0,.75,0,1.5,0,2.25v90c0,6,.95,6.92,7,6.9,4.21,0,5.68-1.49,5.68-5.77Z" transform="translate(-176.13 -64.24)"/><path d="M240.57,97.31H182.63c-4.68,0-6.47-1.78-6.49-6.46,0-5,0-10,0-15,0-4.29,1.76-6,6-6,10.82,0,21.63,0,32.45,0,1.58,0,2.49-.29,2.89-2.06.52-2.33,2.57-3.52,5.54-3.53,7.38,0,14.75,0,22.13,0,4.38,0,8.75,0,13.13,0,3.27,0,4.8,1.12,5.73,4.26.4,1.34,1.3,1.3,2.33,1.3H297.3c.87,0,1.75,0,2.62,0,3.06.05,5.12,1.72,5.19,4.72.15,6,.13,12,0,18-.06,2.74-2.15,4.56-4.9,4.75-.81,0-1.63,0-2.44,0Z" transform="translate(-176.13 -64.24)"/></svg>